<svg width="512" height="512" xmlns="http://www.w3.org/2000/svg">
 <!-- Created with UXWing SVG Editor - https://uxwing.com/svg-icon-editor/ -->
 <g>
  <title>background</title>
  <rect fill="none" id="canvas_background" height="514" width="514" y="-1" x="-1"/>
  <g display="none" overflow="visible" y="0" x="0" height="100%" width="100%" id="canvasGrid">
   <rect fill="url(#gridpattern)" stroke-width="0" y="0" x="0" height="100%" width="100%"/>
  </g>
 </g>
 <g>
  <title>Layer 1</title>
  <path stroke="#FF0000" id="svg_1" d="m240.974472,132.449149c-62.687248,0 -113.49999,47.457872 -113.49999,106.000035c0,58.545172 50.812742,105.999985 113.49999,105.999985c62.684314,0 113.500026,-47.454814 113.500026,-105.999985c0,-58.542163 -50.815703,-106.000035 -113.500026,-106.000035zm10.37007,167.051751l-21.139211,0l0,-18.932507l21.139211,0l0,18.932507zm0,-39.147681l0,6.257042l-21.139211,0l0,-7.709502c0,-23.264279 28.34813,-26.956096 28.34813,-43.490832c0,-7.539508 -7.218044,-13.314976 -16.66757,-13.314976c-9.791982,0 -18.380362,6.738224 -18.380362,6.738224l-12.035164,-13.966519c0,0 11.862438,-11.554144 32.307163,-11.554144c19.420426,0 37.452248,11.231501 37.452248,30.166782c0.009062,26.488917 -29.885234,29.543711 -29.885234,46.873917l0,0.000008z" stroke-width="0.001" fill="#ffffff"/>
 </g>
</svg>