<svg width="512" height="512" xmlns="http://www.w3.org/2000/svg">
 <!-- Created with UXWing SVG Editor - https://uxwing.com/svg-icon-editor/ -->
 <g>
  <title>background</title>
  <rect fill="none" id="canvas_background" height="514" width="514" y="-1" x="-1"/>
  <g display="none" overflow="visible" y="0" x="0" height="100%" width="100%" id="canvasGrid">
   <rect fill="url(#gridpattern)" stroke-width="0" y="0" x="0" height="100%" width="100%"/>
  </g>
 </g>
 <g>
  <title>Layer 1</title>
  <path stroke="#FF0000" id="svg_1" d="m136.129894,263.816182l179.493558,0.057753l-5.824608,7.254676l-167.775574,-0.173252l-5.893384,-7.139177l0.000008,0zm1.2335,-96.503638l177.095082,-0.173252l5.139497,7.442189l-187.442682,0.057753l5.208104,-7.32669zm-17.477122,48.356672l211.91218,-0.173252l-0.273921,7.442195l-211.501206,-0.115499l-0.137053,-7.153445zm212.0876,0.690259c0,49.269077 -47.569542,89.349972 -106.05002,89.349972c-58.455213,0 -106.01589,-40.08814 -106.01589,-89.349972c0,-49.262073 47.569273,-89.342961 106.01589,-89.342961c58.480486,-0.007238 106.05002,40.080889 106.05002,89.342961zm-106.041693,-96.503644c-63.121433,0 -114.487099,43.28748 -114.487099,96.496387c0,53.216157 51.365674,96.503631 114.487099,96.503631c63.155802,0 114.512895,-43.287474 114.512895,-96.503631c0,-53.208907 -51.357085,-96.496387 -114.512895,-96.496387zm32.128293,96.503644c0,52.64811 -16.925773,89.349972 -32.128293,89.349972c-15.18532,0 -32.110824,-36.701862 -32.110824,-89.349972c0,-52.662605 16.917161,-89.342961 32.110824,-89.342961c15.193939,-0.007238 32.128293,36.680356 32.128293,89.342961zm-32.128293,-96.503644c-26.369363,0 -40.599225,49.721936 -40.599225,96.496387c0,46.788732 14.229863,96.503631 40.599225,96.503631c26.369632,0 40.625283,-49.722131 40.625283,-96.503631c-0.008596,-46.774451 -14.255651,-96.496387 -40.625283,-96.496387zm75.24431,96.503644c0,49.269077 -33.766131,89.349972 -75.24431,89.349972c-41.46956,0 -75.218514,-40.08814 -75.218514,-89.349972c0,-49.262073 33.748954,-89.342961 75.218514,-89.342961c41.478179,-0.007238 75.24431,40.080889 75.24431,89.342961zm-75.24431,-96.503644c-46.144645,0 -83.706908,43.28748 -83.706908,96.496387c0,53.216157 37.562263,96.503631 83.706908,96.503631c46.161837,0 83.715765,-43.287474 83.715765,-96.503631c0,-53.208907 -37.553928,-96.496387 -83.715765,-96.496387z" stroke-width="0.001" fill="#ffffff"/>
 </g>
</svg>